<svg width="41" height="24" viewBox="0 0 41 24" fill="none" xmlns="http://www.w3.org/2000/svg">
<path fill-rule="evenodd" clip-rule="evenodd" d="M27.83 0.501849C27.9887 0.34277 28.1772 0.216557 28.3847 0.130441C28.5923 0.0443258 28.8148 0 29.0394 0C29.2641 0 29.4866 0.0443258 29.6941 0.130441C29.9017 0.216557 30.0902 0.34277 30.2489 0.501849L40.4981 10.7511C40.6572 10.9098 40.7834 11.0983 40.8695 11.3058C40.9556 11.5133 40.9999 11.7358 40.9999 11.9605C40.9999 12.1852 40.9556 12.4077 40.8695 12.6152C40.7834 12.8227 40.6572 13.0112 40.4981 13.1699L30.2489 23.4191C29.9281 23.7399 29.4931 23.9201 29.0394 23.9201C28.5858 23.9201 28.1508 23.7399 27.83 23.4191C27.5093 23.0984 27.3291 22.6634 27.3291 22.2097C27.3291 21.7561 27.5093 21.3211 27.83 21.0003L36.8733 11.9605L27.83 2.92067C27.671 2.76199 27.5447 2.57349 27.4586 2.36596C27.3725 2.15843 27.3282 1.93595 27.3282 1.71126C27.3282 1.48657 27.3725 1.26409 27.4586 1.05656C27.5447 0.849029 27.671 0.660526 27.83 0.501849Z" fill="white"/>
<path fill-rule="evenodd" clip-rule="evenodd" d="M0 11.9606C0 11.5076 0.179972 11.0731 0.500322 10.7528C0.820673 10.4324 1.25516 10.2524 1.70821 10.2524H37.5805C38.0336 10.2524 38.4681 10.4324 38.7884 10.7528C39.1088 11.0731 39.2887 11.5076 39.2887 11.9606C39.2887 12.4137 39.1088 12.8482 38.7884 13.1685C38.4681 13.4889 38.0336 13.6689 37.5805 13.6689H1.70821C1.25516 13.6689 0.820673 13.4889 0.500322 13.1685C0.179972 12.8482 0 12.4137 0 11.9606Z" fill="white"/>
</svg>
