<svg width="41" height="24" viewBox="0 0 41 24" fill="none" xmlns="http://www.w3.org/2000/svg">
<path fill-rule="evenodd" clip-rule="evenodd" d="M13.17 23.4982C13.0113 23.6572 12.8228 23.7834 12.6153 23.8696C12.4078 23.9557 12.1853 24 11.9606 24C11.7359 24 11.5134 23.9557 11.3059 23.8696C11.0984 23.7834 10.9099 23.6572 10.7512 23.4982L0.501967 13.2489C0.342889 13.0902 0.216678 12.9017 0.130562 12.6942C0.044446 12.4867 0.000119282 12.2642 0.000119301 12.0395C0.000119321 11.8148 0.0444461 11.5923 0.130562 11.3848C0.216678 11.1773 0.342889 10.9888 0.501968 10.8301L10.7512 0.580854C11.072 0.260099 11.507 0.0799025 11.9606 0.0799025C12.4142 0.0799025 12.8493 0.260099 13.17 0.580854C13.4908 0.901611 13.671 1.33665 13.671 1.79027C13.671 2.24388 13.4908 2.67892 13.17 2.99968L4.12678 12.0395L13.17 21.0793C13.3291 21.238 13.4553 21.4265 13.5414 21.634C13.6275 21.8416 13.6719 22.0641 13.6719 22.2887C13.6719 22.5134 13.6275 22.7359 13.5414 22.9434C13.4553 23.151 13.3291 23.3395 13.17 23.4982Z" fill="white"/>
<path fill-rule="evenodd" clip-rule="evenodd" d="M41 12.0394C41 12.4924 40.82 12.9269 40.4997 13.2472C40.1793 13.5676 39.7448 13.7476 39.2918 13.7476L3.41946 13.7476C2.96641 13.7476 2.53192 13.5676 2.21157 13.2472C1.89122 12.9269 1.71125 12.4924 1.71125 12.0393C1.71125 11.5863 1.89122 11.1518 2.21157 10.8315C2.53192 10.5111 2.96641 10.3311 3.41946 10.3311L39.2918 10.3311C39.7448 10.3311 40.1793 10.5111 40.4997 10.8315C40.82 11.1518 41 11.5863 41 12.0394Z" fill="white"/>
</svg>
