<svg width="54" height="42" viewBox="0 0 54 42" fill="none" xmlns="http://www.w3.org/2000/svg">
<g filter="url(#filter0_d_91_79)">
<path d="M40.0904 9.79315C39.858 9.46367 39.546 9.29892 39.1546 9.29892H35.4848L27.9617 2.92879C27.6436 2.61151 27.2889 2.40405 26.8974 2.30643C26.506 2.2088 26.1084 2.2088 25.7047 2.30643C25.3011 2.40405 24.9402 2.61151 24.6221 2.92879L17.2458 9.29892H14.2366L12.3283 2.81896C12.157 2.23321 11.9246 1.73287 11.631 1.31796C11.3374 0.903045 11.0255 0.610165 10.6952 0.439319C10.365 0.268473 10.0775 0.152541 9.83283 0.0915248C9.58817 0.0305083 9.34352 0 9.09887 0H4.07123C3.75318 0 3.48406 0.10983 3.26388 0.329489C3.04369 0.549149 2.93359 0.829825 2.93359 1.17152C2.93359 1.36677 2.98252 1.55592 3.08039 1.73897C3.17825 1.92202 3.31892 2.06236 3.50241 2.15999C3.6859 2.25761 3.87551 2.30643 4.07123 2.30643H9.09887C9.17226 2.30643 9.23954 2.31863 9.30071 2.34304C9.36187 2.36744 9.44138 2.41015 9.53924 2.47117C9.63711 2.53219 9.73497 2.64812 9.83283 2.81896C9.93069 2.98981 10.0163 3.20947 10.0897 3.47794L16.5853 27.2744C16.6587 27.5185 16.7993 27.7198 17.0073 27.8785C17.2153 28.0371 17.4416 28.1164 17.6862 28.1164H33.5398C33.7844 28.1164 34.0107 28.0432 34.2187 27.8968C34.4266 27.7503 34.5673 27.5673 34.6407 27.3476L40.2555 10.8731C40.3778 10.4826 40.3228 10.1226 40.0904 9.79315ZM26.3103 4.57624L31.8884 9.33553H20.6955L26.3103 4.57624ZM32.7324 25.7734H18.6037L14.8605 11.642H37.4665L32.7324 25.7734ZM30.4204 30.4595C29.6131 30.4595 28.9219 30.7462 28.347 31.3198C27.7721 31.8933 27.4846 32.5828 27.4846 33.3883C27.4846 34.1937 27.7721 34.8832 28.347 35.4567C28.9219 36.0303 29.6131 36.317 30.4204 36.317C31.2278 36.317 31.9189 36.0303 32.4939 35.4567C33.0688 34.8832 33.3563 34.1937 33.3563 33.3883C33.3563 32.9977 33.2768 32.6194 33.1177 32.2533C32.9587 31.8872 32.7508 31.5761 32.4939 31.3198C32.237 31.0635 31.9251 30.8561 31.5581 30.6974C31.1911 30.5388 30.8119 30.4595 30.4204 30.4595ZM19.8514 30.4595C19.3132 30.4595 18.8177 30.5937 18.3651 30.8622C17.9125 31.1306 17.5578 31.4845 17.3009 31.9239C17.044 32.3632 16.9156 32.8513 16.9156 33.3883C16.9156 34.1937 17.203 34.8832 17.778 35.4567C18.3529 36.0303 19.044 36.317 19.8514 36.317C20.6588 36.317 21.3499 36.0303 21.9248 35.4567C22.4998 34.8832 22.7872 34.1937 22.7872 33.3883C22.7872 32.2655 22.2857 31.4235 21.2826 30.8622C20.8422 30.5937 20.3652 30.4595 19.8514 30.4595Z" fill="white"/>
</g>
<g filter="url(#filter1_di_91_79)">
<circle cx="40.5857" cy="10.4144" r="10.4144" fill="#FFA827"/>
</g>
<path d="M42.6295 18.6022H40.807V11.2811C40.807 10.4074 40.8277 9.71457 40.869 9.20272C40.7501 9.32681 40.6027 9.46382 40.427 9.61375C40.2563 9.76369 39.6773 10.2393 38.6898 11.0407L37.7746 9.88519L41.1094 7.26389H42.6295V18.6022Z" fill="white"/>
<defs>
<filter id="filter0_d_91_79" x="0.286443" y="0" width="42.6796" height="41.6113" filterUnits="userSpaceOnUse" color-interpolation-filters="sRGB">
<feFlood flood-opacity="0" result="BackgroundImageFix"/>
<feColorMatrix in="SourceAlpha" type="matrix" values="0 0 0 0 0 0 0 0 0 0 0 0 0 0 0 0 0 0 127 0" result="hardAlpha"/>
<feOffset dy="2.64715"/>
<feGaussianBlur stdDeviation="1.32358"/>
<feColorMatrix type="matrix" values="0 0 0 0 0 0 0 0 0 0 0 0 0 0 0 0 0 0 0.25 0"/>
<feBlend mode="normal" in2="BackgroundImageFix" result="effect1_dropShadow_91_79"/>
<feBlend mode="normal" in="SourceGraphic" in2="effect1_dropShadow_91_79" result="shape"/>
</filter>
<filter id="filter1_di_91_79" x="27.5241" y="0" width="26.1232" height="26.1232" filterUnits="userSpaceOnUse" color-interpolation-filters="sRGB">
<feFlood flood-opacity="0" result="BackgroundImageFix"/>
<feColorMatrix in="SourceAlpha" type="matrix" values="0 0 0 0 0 0 0 0 0 0 0 0 0 0 0 0 0 0 127 0" result="hardAlpha"/>
<feOffset dy="2.64715"/>
<feGaussianBlur stdDeviation="1.32358"/>
<feColorMatrix type="matrix" values="0 0 0 0 0 0 0 0 0 0 0 0 0 0 0 0 0 0 0.25 0"/>
<feBlend mode="normal" in2="BackgroundImageFix" result="effect1_dropShadow_91_79"/>
<feBlend mode="normal" in="SourceGraphic" in2="effect1_dropShadow_91_79" result="shape"/>
<feColorMatrix in="SourceAlpha" type="matrix" values="0 0 0 0 0 0 0 0 0 0 0 0 0 0 0 0 0 0 127 0" result="hardAlpha"/>
<feOffset dy="2.64715"/>
<feGaussianBlur stdDeviation="1.32358"/>
<feComposite in2="hardAlpha" operator="arithmetic" k2="-1" k3="1"/>
<feColorMatrix type="matrix" values="0 0 0 0 0 0 0 0 0 0 0 0 0 0 0 0 0 0 0.5 0"/>
<feBlend mode="normal" in2="shape" result="effect2_innerShadow_91_79"/>
</filter>
</defs>
</svg>
