<svg width="23" height="26" viewBox="0 0 23 26" fill="none" xmlns="http://www.w3.org/2000/svg">
<path d="M7.1875 2.87852C6.80625 2.87852 6.44062 3.02997 6.17103 3.29956C5.90145 3.56914 5.75 3.93477 5.75 4.31602C5.75 4.69727 5.90145 5.0629 6.17103 5.33249C6.44062 5.60207 6.80625 5.75352 7.1875 5.75352C7.56875 5.75352 7.93438 5.60207 8.20397 5.33249C8.47355 5.0629 8.625 4.69727 8.625 4.31602C8.625 3.93477 8.47355 3.56914 8.20397 3.29956C7.93438 3.02997 7.56875 2.87852 7.1875 2.87852ZM1.70422 2.87852C2.55224 2.87852 3.27402 2.31048 3.7988 1.64433C4.05381 1.32064 4.35537 1.03325 4.69574 0.792407C5.42435 0.276856 6.29494 0 7.1875 0C8.08006 0 8.95065 0.276856 9.67926 0.792407C10.0196 1.03325 10.3212 1.32064 10.5762 1.64433C11.101 2.31048 11.8228 2.87852 12.6708 2.87852H21.5625C21.9437 2.87852 22.3094 3.02997 22.579 3.29956C22.8486 3.56914 23 3.93477 23 4.31602C23 4.69727 22.8486 5.0629 22.579 5.33249C22.3094 5.60207 21.9437 5.75352 21.5625 5.75352H12.6708C11.8228 5.75352 11.101 6.32156 10.5762 6.98771C10.3212 7.31141 10.0196 7.5988 9.67926 7.83964C8.95065 8.35519 8.08006 8.63204 7.1875 8.63204C6.29494 8.63204 5.42435 8.35519 4.69574 7.83964C4.35537 7.5988 4.05381 7.31141 3.7988 6.98771C3.27402 6.32156 2.55224 5.75352 1.70422 5.75352H1.4375C1.05625 5.75352 0.690618 5.60207 0.421034 5.33249C0.151451 5.0629 0 4.69727 0 4.31602C0 3.93477 0.151451 3.56914 0.421034 3.29956C0.690618 3.02997 1.05625 2.87852 1.4375 2.87852H1.70422ZM15.8125 11.5035C15.4313 11.5035 15.0656 11.655 14.796 11.9246C14.5265 12.1941 14.375 12.5598 14.375 12.941C14.375 13.3223 14.5265 13.6879 14.796 13.9575C15.0656 14.2271 15.4313 14.3785 15.8125 14.3785C16.1937 14.3785 16.5594 14.2271 16.829 13.9575C17.0985 13.6879 17.25 13.3223 17.25 12.941C17.25 12.5598 17.0985 12.1941 16.829 11.9246C16.5594 11.655 16.1937 11.5035 15.8125 11.5035ZM10.3292 11.5035C11.1772 11.5035 11.899 10.9355 12.4238 10.2693C12.6788 9.94563 12.9804 9.65824 13.3207 9.4174C14.0493 8.90185 14.9199 8.625 15.8125 8.625C16.7051 8.625 17.5757 8.90185 18.3043 9.4174C18.6446 9.65824 18.9462 9.94563 19.2012 10.2693C19.726 10.9355 20.4478 11.5035 21.2958 11.5035H21.5625C21.9437 11.5035 22.3094 11.655 22.579 11.9246C22.8486 12.1941 23 12.5598 23 12.941C23 13.3223 22.8486 13.6879 22.579 13.9575C22.3094 14.2271 21.9437 14.3785 21.5625 14.3785H21.2958C20.4478 14.3785 19.726 14.9466 19.2012 15.6127C18.9462 15.9364 18.6446 16.2238 18.3043 16.4646C17.5757 16.9802 16.7051 17.257 15.8125 17.257C14.9199 17.257 14.0493 16.9802 13.3207 16.4646C12.9804 16.2238 12.6788 15.9364 12.4238 15.6127C11.899 14.9466 11.1772 14.3785 10.3292 14.3785H1.4375C1.05625 14.3785 0.690618 14.2271 0.421034 13.9575C0.151451 13.6879 0 13.3223 0 12.941C0 12.5598 0.151451 12.1941 0.421034 11.9246C0.690618 11.655 1.05625 11.5035 1.4375 11.5035H10.3292ZM7.1875 20.1285C6.80625 20.1285 6.44062 20.28 6.17103 20.5496C5.90145 20.8191 5.75 21.1848 5.75 21.566C5.75 21.9473 5.90145 22.3129 6.17103 22.5825C6.44062 22.8521 6.80625 23.0035 7.1875 23.0035C7.56875 23.0035 7.93438 22.8521 8.20397 22.5825C8.47355 22.3129 8.625 21.9473 8.625 21.566C8.625 21.1848 8.47355 20.8191 8.20397 20.5496C7.93438 20.28 7.56875 20.1285 7.1875 20.1285ZM1.70422 20.1285C2.55224 20.1285 3.27402 19.5605 3.7988 18.8943C4.05381 18.5706 4.35537 18.2832 4.69574 18.0424C5.42435 17.5269 6.29494 17.25 7.1875 17.25C8.08006 17.25 8.95065 17.5269 9.67926 18.0424C10.0196 18.2832 10.3212 18.5706 10.5762 18.8943C11.101 19.5605 11.8228 20.1285 12.6708 20.1285H21.5625C21.9437 20.1285 22.3094 20.28 22.579 20.5496C22.8486 20.8191 23 21.1848 23 21.566C23 21.9473 22.8486 22.3129 22.579 22.5825C22.3094 22.8521 21.9437 23.0035 21.5625 23.0035H12.6708C11.8228 23.0035 11.101 23.5716 10.5762 24.2377C10.3212 24.5614 10.0196 24.8488 9.67926 25.0896C8.95065 25.6052 8.08006 25.882 7.1875 25.882C6.29494 25.882 5.42435 25.6052 4.69574 25.0896C4.35537 24.8488 4.05381 24.5614 3.7988 24.2377C3.27402 23.5716 2.55224 23.0035 1.70422 23.0035H1.4375C1.05625 23.0035 0.690618 22.8521 0.421034 22.5825C0.151451 22.3129 0 21.9473 0 21.566C0 21.1848 0.151451 20.8191 0.421034 20.5496C0.690618 20.28 1.05625 20.1285 1.4375 20.1285H1.70422Z" fill="#05A2D6"/>
</svg>
