<svg width="20" height="20" viewBox="0 0 20 20" fill="none" xmlns="http://www.w3.org/2000/svg">
<path fill-rule="evenodd" clip-rule="evenodd" d="M9.99986 -0.000732422C10.2945 -0.000732422 10.5772 0.116329 10.7855 0.3247C10.9939 0.533071 11.111 0.815682 11.111 1.11036V9.99913C11.111 10.2938 10.9939 10.5764 10.7855 10.7848C10.5772 10.9932 10.2945 11.1102 9.99986 11.1102H1.1111C0.816415 11.1102 0.533804 10.9932 0.325433 10.7848C0.117062 10.5764 0 10.2938 0 9.99913C0 9.70445 0.117062 9.42184 0.325433 9.21347C0.533804 9.0051 0.816415 8.88803 1.1111 8.88803H8.88877V1.11036C8.88877 0.815682 9.00583 0.533071 9.2142 0.3247C9.42257 0.116329 9.70518 -0.000732422 9.99986 -0.000732422Z" fill="white"/>
<path fill-rule="evenodd" clip-rule="evenodd" d="M8.88867 9.99904C8.88867 9.70435 9.00573 9.42174 9.2141 9.21337C9.42248 9.005 9.70509 8.88794 9.99977 8.88794H18.8885C19.1832 8.88794 19.4658 9.005 19.6742 9.21337C19.8826 9.42174 19.9996 9.70435 19.9996 9.99904C19.9996 10.2937 19.8826 10.5763 19.6742 10.7847C19.4658 10.9931 19.1832 11.1101 18.8885 11.1101H11.1109V18.8878C11.1109 19.1825 10.9938 19.4651 10.7854 19.6735C10.5771 19.8818 10.2944 19.9989 9.99977 19.9989C9.70509 19.9989 9.42248 19.8818 9.2141 19.6735C9.00573 19.4651 8.88867 19.1825 8.88867 18.8878V9.99904Z" fill="white"/>
</svg>
