<svg width="18" height="18" viewBox="0 0 18 18" fill="none" xmlns="http://www.w3.org/2000/svg">
<path fill-rule="evenodd" clip-rule="evenodd" d="M13.1051 12.0382C14.1826 10.6489 14.6905 8.90134 14.5253 7.15094C14.3601 5.40053 13.5343 3.7788 12.2158 2.61568C10.8973 1.45255 9.18529 0.835406 7.42795 0.889786C5.67061 0.944165 3.99999 1.66599 2.75596 2.90841C1.51085 4.15169 0.786668 5.82295 0.730989 7.58163C0.67531 9.34031 1.29233 11.054 2.4563 12.3736C3.62027 13.6931 5.2436 14.5192 6.99547 14.6834C8.74735 14.8477 10.4959 14.3377 11.8849 13.2575L11.922 13.2964L15.5878 16.963C15.6681 17.0433 15.7634 17.107 15.8683 17.1504C15.9732 17.1939 16.0856 17.2162 16.1992 17.2162C16.3127 17.2162 16.4251 17.1939 16.53 17.1504C16.6349 17.107 16.7303 17.0433 16.8105 16.963C16.8908 16.8827 16.9545 16.7874 16.998 16.6825C17.0414 16.5776 17.0638 16.4652 17.0638 16.3516C17.0638 16.2381 17.0414 16.1256 16.998 16.0207C16.9545 15.9158 16.8908 15.8205 16.8105 15.7402L13.1439 12.0745C13.1313 12.062 13.1184 12.0499 13.1051 12.0382ZM11.3111 4.13118C11.799 4.6112 12.187 5.18307 12.4528 5.81381C12.7186 6.44454 12.8569 7.12166 12.8596 7.8061C12.8624 8.49054 12.7297 9.16876 12.469 9.80164C12.2084 10.4345 11.825 11.0095 11.3411 11.4935C10.8571 11.9775 10.2821 12.3608 9.64919 12.6215C9.01631 12.8821 8.33809 13.0149 7.65365 13.0121C6.96921 13.0093 6.2921 12.871 5.66136 12.6052C5.03063 12.3395 4.45876 11.9514 3.97874 11.4635C3.01946 10.4885 2.48432 9.1739 2.48989 7.8061C2.49546 6.4383 3.04128 5.12811 4.00847 4.16092C4.97566 3.19373 6.28585 2.6479 7.65365 2.64233C9.02145 2.63676 10.336 3.1719 11.3111 4.13118Z" fill="#202F5D" />
</svg>
