<?xml version="1.0" standalone="no"?><!DOCTYPE svg PUBLIC "-//W3C//DTD SVG 20010904//EN" "http://www.w3.org/TR/2001/REC-SVG-20010904/DTD/svg10.dtd"><svg xmlns="http://www.w3.org/2000/svg" version="1.0" width="512.000000pt" height="512.000000pt" viewBox="0 0 512.000000 512.000000" preserveAspectRatio="xMidYMid meet">

<g transform="translate(0.000000,512.000000) scale(0.100000,-0.100000)" fill="#4595f3" stroke="none">
<path d="M2361 5110 c-372 -31 -747 -146 -1058 -323 -1005 -574 -1501 -1728 -1223 -2847 152 -613 526 -1145 1057 -1503 593 -401 1348 -533 2043 -357 839 212 1511 826 1795 1641 214 616 184 1291 -86 1893 -356 795 -1125 1367 -1989 1480 -148 19 -406 27 -539 16z m-723 -1016 c43 -21 81 -60 229 -234 98 -115 188 -228 201 -252 20 -37 23 -55 20 -119 -3 -73 -5 -80 -52 -148 l-48 -71 -47 43 c-227 213 -643 703 -628 741 8 21 156 65 218 66 40 0 69 -7 107 -26z m-314 -193 c142 -191 430 -519 555 -631 l64 -57 -31 -42 c-68 -93 -81 -234 -32 -331 66 -131 257 -375 421 -539 164 -164 408 -355 539 -421 96 -49 238 -36 330 31 l42 31 82 -86 c148 -156 399 -376 599 -525 53 -41 97 -77 97 -82 0 -22 -310 -169 -453 -215 -159 -50 -284 -41 -530 41 -402 133 -793 389 -1168 764 -440 440 -721 910 -819 1370 -27 127 -24 208 15 329 44 140 193 452 215 452 4 0 37 -40 74 -89z m2285 -1833 c23 -13 136 -103 251 -201 234 -199 260 -233 260 -333 0 -62 -45 -213 -65 -220 -39 -15 -536 405 -738 622 l-47 51 59 42 c78 54 94 60 172 60 50 1 76 -4 108 -21z"/>
</g>
</svg>